<svg width="41" height="42" viewBox="0 0 41 42" fill="none" xmlns="http://www.w3.org/2000/svg">
<mask id="mask0_665_18" style="mask-type:alpha" maskUnits="userSpaceOnUse" x="0" y="0" width="41" height="42">
<path d="M23.1802 1H21H18.3198C17.8431 1 17.4327 1.33646 17.3392 1.80388L16.609 5.45496C16.5412 5.7939 16.3032 6.0738 15.9796 6.19517L12.9624 7.32661C12.6709 7.4359 12.3452 7.40325 12.0812 7.23828L9.13483 5.39677C8.7585 5.16156 8.27217 5.20252 7.94047 5.49736L4.61974 8.44912C4.26032 8.7686 4.1792 9.29867 4.42661 9.71102L6.76337 13.6056C6.91356 13.8559 6.94687 14.1594 6.85456 14.4363L6.18351 16.4495C6.07003 16.7899 5.78283 17.0434 5.43095 17.1138L1.80388 17.8392C1.33646 17.9327 1 18.3431 1 18.8198V23.6978C1 24.1665 1.32553 24.5723 1.78307 24.674L4.99968 25.3888C5.3138 25.4586 5.57514 25.6753 5.70189 25.9711L6.79405 28.5194C6.92306 28.8205 6.89649 29.1656 6.7229 29.4434L4.89677 32.3652C4.66156 32.7415 4.70252 33.2278 4.99736 33.5595L7.93885 36.8687C8.26289 37.2332 8.80265 37.3108 9.21626 37.0523L12.0812 35.2617C12.3452 35.0967 12.6709 35.0641 12.9624 35.1734L15.9925 36.3097C16.3091 36.4284 16.5442 36.699 16.6176 37.0291L17.326 40.2169C17.4277 40.6745 17.8335 41 18.3022 41H23.1978C23.6665 41 24.0723 40.6745 24.174 40.2169L24.8888 37.0003C24.9586 36.6862 25.1753 36.4249 25.4711 36.2981L28.0492 35.1932C28.3335 35.0713 28.6583 35.0879 28.9287 35.2382L32.2994 37.1108C32.7088 37.3382 33.2213 37.2511 33.5325 36.901L36.5026 33.5595C36.7975 33.2278 36.8384 32.7415 36.6032 32.3652L34.7771 29.4434C34.6035 29.1656 34.5769 28.8205 34.706 28.5194L35.7981 25.9711C35.9249 25.6753 36.1862 25.4586 36.5003 25.3888L39.7169 24.674C40.1745 24.5723 40.5 24.1665 40.5 23.6978V18.8022C40.5 18.3335 40.1745 17.9277 39.7169 17.826L36.4646 17.1033C36.1707 17.0379 35.9218 16.8436 35.7871 16.5743L34.7236 14.4472C34.5828 14.1657 34.5828 13.8343 34.7236 13.5528L36.6777 9.64467C36.8702 9.25968 36.795 8.795 36.4906 8.49063L33 5C32.6378 4.63784 29.7891 6.16108 28.0164 7.19472C27.6974 7.38075 27.3022 7.38131 26.9855 7.1913L25.3793 6.2276C25.1377 6.08264 24.9685 5.84249 24.9132 5.56622L24.1608 1.80388C24.0673 1.33646 23.6569 1 23.1802 1Z" fill="#D9D9D9" stroke="#E88120"/>
</mask>
<g mask="url(#mask0_665_18)">
<circle cx="21" cy="21" r="14" stroke="#E88120" stroke-width="14"/>
</g>
</svg>
